# xmcd CD database file
#
# Track frame offsets:
#	150
#	14469
#	28895
#	43169
#	57878
#	74564
#	87719
#	99649
#	114614
#	129090
#	141536
#	152704
#	164145
#	176544
#	192467
#	206547
#	220831
#	233237
#	246545
#	261739
#	276228
#	289101
#
# Disc length: 4070 seconds
#
# Revision: 0
# Processed by: cddbd v1.5.1PL0 Copyright (c) Steve Scherf et al.
# Submitted via: CDex 1.50beta10
#
DISCID=6a0fe416
DTITLE=Count Basie - The Jazz Biography
DYEAR=2004
DGENRE=Jazz
TTITLE0=Basie Blues
TTITLE1=Blee Blop Blues
TTITLE2=Bluebeard Blues
TTITLE3=Blues For Count And Oscar
TTITLE4=Circus In Rhythm
TTITLE5=Every Tub
TTITLE6=Golden Bullett
TTITLE7=I'll Remember April
TTITLE8=I'm Gonna Move To The Outskirts Of Town
TTITLE9=Just A Minute
TTITLE10=Little Pony
TTITLE11=Little White Lies
TTITLE12=Neal's Deal
TTITLE13=New Basie Blues
TTITLE14=Queer Street
TTITLE15=Robbin's Nest
TTITLE16=Seventh Avenue Express
TTITLE17=Sugar
TTITLE18=Taps Miller
TTITLE19=The King
TTITLE20=Tootsie
TTITLE21=Why Not
EXTD=YEAR: 2004
EXTT0=
EXTT1=
EXTT2=
EXTT3=
EXTT4=
EXTT5=
EXTT6=
EXTT7=
EXTT8=
EXTT9=
EXTT10=
EXTT11=
EXTT12=
EXTT13=
EXTT14=
EXTT15=
EXTT16=
EXTT17=
EXTT18=
EXTT19=
EXTT20=
EXTT21=
PLAYORDER=
